<svg width="12" height="12" viewBox="0 0 12 12" fill="none" xmlns="http://www.w3.org/2000/svg">
<path d="M5.83301 0.5C8.77842 0.5 11.1668 2.88764 11.167 5.83301C11.167 8.77853 8.77853 11.167 5.83301 11.167C2.88764 11.1668 0.5 8.77842 0.5 5.83301C0.500176 2.88775 2.88775 0.500176 5.83301 0.5ZM5.83301 2.41699C5.23485 2.41717 4.75 2.9018 4.75 3.5V5.83301C4.75 6.12033 4.86422 6.39644 5.06738 6.59961L6.52539 8.05762C6.94846 8.48069 7.63455 8.48068 8.05762 8.05762C8.48068 7.63455 8.48068 6.94846 8.05762 6.52539L6.91699 5.38477V3.5C6.91699 2.90169 6.43132 2.41699 5.83301 2.41699Z" fill="#28C573" stroke="#28C573"/>
</svg>
