<svg width="24" height="24" viewBox="0 0 24 24" fill="none" xmlns="http://www.w3.org/2000/svg">
<path d="M13.0973 3.27419C12.4311 2.83699 11.5689 2.83699 10.9027 3.27419L3.90269 7.86794C3.33932 8.23765 3 8.86619 3 9.54004V19.0002C3 20.1048 3.89543 21.0002 5 21.0002H8.5C9.05228 21.0002 9.5 20.5525 9.5 20.0002V16.5002C9.5 15.1195 10.6193 14.0002 12 14.0002C13.3807 14.0002 14.5 15.1195 14.5 16.5002V20.0002C14.5 20.5525 14.9477 21.0002 15.5 21.0002H19C20.1046 21.0002 21 20.1048 21 19.0002V9.54004C21 8.8662 20.6607 8.23765 20.0973 7.86794L13.0973 3.27419Z" fill="#488CD1"/>
</svg>
