<svg width="24" height="24" viewBox="0 0 24 24" fill="none" xmlns="http://www.w3.org/2000/svg">
<path d="M9 4.74962V17.2496M15 6.24962V18.7496M3 17.8622V6.97038C3 6.53995 3.27543 6.15781 3.68377 6.02169L8.68377 4.35503C8.88904 4.28661 9.11096 4.28661 9.31623 4.35503L14.6838 6.14421C14.889 6.21263 15.111 6.21263 15.3162 6.14421L19.6838 4.68836C20.3313 4.47252 21 4.95449 21 5.63704V16.5289C21 16.9593 20.7246 17.3414 20.3162 17.4775L15.3162 19.1442C15.111 19.2126 14.889 19.2126 14.6838 19.1442L9.31623 17.355C9.11096 17.2866 8.88904 17.2866 8.68377 17.355L4.31623 18.8109C3.6687 19.0267 3 18.5448 3 17.8622Z" stroke="#98A2B3" stroke-width="1.5" stroke-linecap="round" stroke-linejoin="round"/>
</svg>
