<svg width="24" height="24" viewBox="0 0 24 24" fill="none" xmlns="http://www.w3.org/2000/svg">
<path d="M16 17C16 19.2091 14.2091 21 12 21C9.79086 21 8 19.2091 8 17M18.2996 8.99251L18.479 12.5808C18.4929 12.8573 18.5639 13.1278 18.6877 13.3754L19.9146 15.8292C19.9708 15.9415 20 16.0654 20 16.191C20 16.6378 19.6378 17 19.191 17H4.80902C4.36221 17 4 16.6378 4 16.191C4 16.0654 4.02924 15.9415 4.08541 15.8292L5.31231 13.3754C5.43609 13.1278 5.50714 12.8573 5.52096 12.5808L5.70037 8.99251C5.86822 5.63561 8.6389 3 12 3C15.3611 3 18.1318 5.63561 18.2996 8.99251Z" stroke="#343434" stroke-width="1.5" stroke-linejoin="round"/>
</svg>
